<!--
[INPUT]: 依赖 30x demo 的质量分、决策状态、安全边界与 learning ledger 概念
[OUTPUT]: 对外提供 README 首屏 1400×760 SVG 产品图
[POS]: assets 的主视觉；只表达离线 demo 能力，不宣称真实 campaign 结果
[PROTOCOL]: 变更时更新此头部，然后检查 AGENTS.md
-->
<svg xmlns="http://www.w3.org/2000/svg" width="1400" height="760" viewBox="0 0 1400 760" role="img" aria-labelledby="title description">
  <title id="title">30x Outreach product overview</title>
  <desc id="description">An offline demo showing a verified signal moving through a hypothesis, quality gate, approval, decision, and hash-chained learning ledger.</desc>
  <defs>
    <linearGradient id="background" x1="0" y1="0" x2="1" y2="1">
      <stop offset="0" stop-color="#070b14"/>
      <stop offset="1" stop-color="#11172a"/>
    </linearGradient>
    <linearGradient id="accent" x1="0" y1="0" x2="1" y2="0">
      <stop offset="0" stop-color="#9b87f5"/>
      <stop offset="1" stop-color="#4fd1c5"/>
    </linearGradient>
    <filter id="glow" x="-40%" y="-40%" width="180%" height="180%">
      <feGaussianBlur stdDeviation="18"/>
    </filter>
  </defs>
  <rect width="1400" height="760" rx="30" fill="url(#background)"/>
  <circle cx="1180" cy="90" r="180" fill="#6f5de7" opacity=".12" filter="url(#glow)"/>
  <circle cx="180" cy="690" r="190" fill="#35b8ad" opacity=".08" filter="url(#glow)"/>

  <g font-family="Inter, ui-sans-serif, system-ui, sans-serif">
    <rect x="68" y="56" width="106" height="42" rx="21" fill="#18213a" stroke="#34415f"/>
    <text x="121" y="84" fill="#eaf0ff" font-size="20" font-weight="800" text-anchor="middle">30x</text>
    <text x="194" y="84" fill="#8c98b8" font-size="15" letter-spacing="2.4">OUTREACH</text>
    <rect x="1158" y="56" width="174" height="42" rx="21" fill="#102a29" stroke="#225c58"/>
    <circle cx="1182" cy="77" r="5" fill="#4fd1c5"/>
    <text x="1200" y="82" fill="#7ee5dc" font-size="13" font-weight="700">OFFLINE DEMO</text>

    <text x="68" y="175" fill="#f4f7ff" font-size="62" font-weight="800" letter-spacing="-2.4">Outreach that remembers.</text>
    <text x="68" y="218" fill="#9aa6c5" font-size="20">Verified signals in. Auditable decisions out. Every result becomes reusable memory.</text>

    <g transform="translate(68 276)">
      <path d="M154 46H190 M344 46H380 M534 46H570 M724 46H760" stroke="#3a4765" stroke-width="2"/>
      <path d="M182 39L190 46L182 53 M372 39L380 46L372 53 M562 39L570 46L562 53 M752 39L760 46L752 53" fill="none" stroke="#63708f" stroke-width="2"/>
      <g>
        <rect width="154" height="92" rx="16" fill="#121a2d" stroke="#2b3856"/>
        <circle cx="26" cy="26" r="8" fill="#4fd1c5"/>
        <text x="44" y="31" fill="#eaf0ff" font-size="13" font-weight="700">VERIFIED SIGNAL</text>
        <text x="20" y="64" fill="#8591af" font-size="13">source + observation</text>
      </g>
      <g transform="translate(190)">
        <rect width="154" height="92" rx="16" fill="#121a2d" stroke="#2b3856"/>
        <circle cx="26" cy="26" r="8" fill="#9b87f5"/>
        <text x="44" y="31" fill="#eaf0ff" font-size="13" font-weight="700">HYPOTHESIS</text>
        <text x="20" y="64" fill="#8591af" font-size="13">frozen before launch</text>
      </g>
      <g transform="translate(380)">
        <rect width="154" height="92" rx="16" fill="#121a2d" stroke="#2b3856"/>
        <circle cx="26" cy="26" r="8" fill="#9b87f5"/>
        <text x="44" y="31" fill="#eaf0ff" font-size="13" font-weight="700">10-LENS GATE</text>
        <text x="20" y="64" fill="#8591af" font-size="13">deterministic checks</text>
      </g>
      <g transform="translate(570)">
        <rect width="154" height="92" rx="16" fill="#121a2d" stroke="#2b3856"/>
        <circle cx="26" cy="26" r="8" fill="#f6e05e"/>
        <text x="44" y="31" fill="#eaf0ff" font-size="13" font-weight="700">HUMAN GATE</text>
        <text x="20" y="64" fill="#8591af" font-size="13">SHA-bound approval</text>
      </g>
      <g transform="translate(760)">
        <rect width="154" height="92" rx="16" fill="#121a2d" stroke="#2b3856"/>
        <circle cx="26" cy="26" r="8" fill="#68d391"/>
        <text x="44" y="31" fill="#eaf0ff" font-size="13" font-weight="700">LEARNING</text>
        <text x="20" y="64" fill="#8591af" font-size="13">hash-chained ledger</text>
      </g>
    </g>

    <g transform="translate(68 410)">
      <rect width="884" height="270" rx="22" fill="#0d1424" stroke="#2b3856"/>
      <text x="26" y="40" fill="#8c98b8" font-size="12" font-weight="700" letter-spacing="1.8">LEARNING REPORT</text>
      <text x="26" y="78" fill="#f0f4ff" font-size="23" font-weight="700">demo-ai-demand-001</text>
      <text x="26" y="105" fill="#7e8aa8" font-size="14">Heads of Growth · B2B AI · 20–100 employees</text>
      <line x1="26" y1="130" x2="858" y2="130" stroke="#25314b"/>

      <circle cx="116" cy="196" r="52" fill="none" stroke="#1e2942" stroke-width="12"/>
      <circle cx="116" cy="196" r="52" fill="none" stroke="url(#accent)" stroke-width="12" stroke-linecap="round" stroke-dasharray="326.7" transform="rotate(-90 116 196)"/>
      <text x="116" y="200" fill="#f2f6ff" font-size="28" font-weight="800" text-anchor="middle">100</text>
      <text x="116" y="220" fill="#7e8aa8" font-size="10" text-anchor="middle">QUALITY</text>

      <text x="208" y="178" fill="#7e8aa8" font-size="12" font-weight="700" letter-spacing="1.4">DECISION</text>
      <text x="208" y="223" fill="#68d391" font-size="42" font-weight="850">SCALE</text>

      <g transform="translate(420 156)">
        <text fill="#7e8aa8" font-size="12" font-weight="700" letter-spacing="1.2">QUALITY GATE</text>
        <rect y="22" width="410" height="12" rx="6" fill="#1b253d"/>
        <rect y="22" width="410" height="12" rx="6" fill="url(#accent)"/>
        <text y="62" fill="#aab5d2" font-size="13">10 / 10 lenses passed</text>
        <text x="250" y="62" fill="#aab5d2" font-size="13">0 hard blockers</text>
      </g>
    </g>

    <g transform="translate(982 410)">
      <rect width="350" height="270" rx="22" fill="#121a2d" stroke="#2b3856"/>
      <text x="24" y="40" fill="#8c98b8" font-size="12" font-weight="700" letter-spacing="1.8">WHY IT IS SAFE</text>
      <circle cx="31" cy="79" r="7" fill="#4fd1c5"/>
      <text x="51" y="84" fill="#dce3f7" font-size="14">Preview is the default</text>
      <circle cx="31" cy="120" r="7" fill="#4fd1c5"/>
      <text x="51" y="125" fill="#dce3f7" font-size="14">No invented personalization</text>
      <circle cx="31" cy="161" r="7" fill="#4fd1c5"/>
      <text x="51" y="166" fill="#dce3f7" font-size="14">Approval binds exact payload</text>
      <circle cx="31" cy="202" r="7" fill="#4fd1c5"/>
      <text x="51" y="207" fill="#dce3f7" font-size="14">Hash-chain integrity is checked</text>
      <rect x="24" y="228" width="302" height="1" fill="#2b3856"/>
      <text x="24" y="252" fill="#7885a3" font-size="11">No API key · no PII · no external write</text>
    </g>
  </g>
</svg>
